# xmcd CD database file
#
# Track frame offsets:
#	150
#	16775
#	31597
#	45481
#	60382
#	74620
#	87879
#	102613
#	121586
#	135748
#	152952
#	174998
#
# Disc length: 2557 seconds
#
# Revision: 0
# Processed by: cddbd v1.5.2PL0 Copyright (c) Steve Scherf et al.
# Submitted via: CDex 1.70beta2
#
DISCID=9009fb0c
DTITLE=Stephanie Urbina Jones - The Texicana Sessions
DYEAR=2010
DGENRE=Country
TTITLE0=Revolucion En Mi Corazon
TTITLE1=Como Se Llama, Mama? (Where Have You Been)
TTITLE2=I'm Not a Pinata
TTITLE3=Adios
TTITLE4=Canta Me
TTITLE5=O Que Milagro
TTITLE6=Falling Fearlessly
TTITLE7=The Midnight Side of Me
TTITLE8=After the Fever Breaks
TTITLE9=Choose to Believe
TTITLE10=Mariachis Make Me Cry
TTITLE11=Gracias
EXTD=YEAR: 2010
EXTT0=
EXTT1=
EXTT2=
EXTT3=
EXTT4=
EXTT5=
EXTT6=
EXTT7=
EXTT8=
EXTT9=
EXTT10=
EXTT11=
PLAYORDER=
